<?xml version="1.0" encoding="UTF-8" standalone="no"?>
<svg
   version="1.1"
   viewBox="0 0 783 387"
   width="783"
   height="387"
   id="svg5"
   sodipodi:docname="QarcConnect.svg"
   inkscape:version="1.3.2 (091e20e, 2023-11-25, custom)"
   xmlns:inkscape="http://www.inkscape.org/namespaces/inkscape"
   xmlns:sodipodi="http://sodipodi.sourceforge.net/DTD/sodipodi-0.dtd"
   xmlns="http://www.w3.org/2000/svg"
   xmlns:svg="http://www.w3.org/2000/svg">
  <defs
     id="defs5" />
  <sodipodi:namedview
     id="namedview5"
     pagecolor="#ffffff"
     bordercolor="#000000"
     borderopacity="0.25"
     inkscape:showpageshadow="2"
     inkscape:pageopacity="0.0"
     inkscape:pagecheckerboard="0"
     inkscape:deskcolor="#d1d1d1"
     inkscape:zoom="0.79394531"
     inkscape:cx="370.30258"
     inkscape:cy="218.52891"
     inkscape:window-width="1920"
     inkscape:window-height="1009"
     inkscape:window-x="-8"
     inkscape:window-y="-8"
     inkscape:window-maximized="1"
     inkscape:current-layer="svg5" />
  <path
     d="m 162,5 h 33 l 22,3 21,6 13,5 16,8 12,7 13,10 12,11 5,4 7,8 11,14 9,15 8,16 7,19 5,22 2,18 v 17 l -2,20 -5,20 -6,12 -15,16 -4,2 v 2 h -2 l -2,4 -16,16 -7,11 -5,13 -3,15 v 15 l 3,17 4,13 -1,2 -26,-26 v -2 h -2 l -2,-2 -18,10 -22,8 -25,5 -9,1 h -29 l -21,-3 -19,-5 -16,-6 L 87,335 74,326 63,317 53,308 41,295 29,279 16,256 8,235 4,220 1,203 0,193 v -23 l 2,-19 6,-25 8,-20 8,-15 8,-12 11,-14 18,-18 17,-13 16,-9 17,-8 22,-7 20,-4 z m 1,66 -18,4 -16,6 -12,7 -9,7 -10,9 -11,14 -8,14 -6,16 -3,14 -1,7 v 22 l 3,19 6,17 9,17 8,10 9,10 14,11 14,8 16,6 15,3 11,1 h 10 l 18,-2 15,-4 4,-2 -6,-7 -9,-10 -29,-31 -12,-13 h 67 l 30,30 h 2 l 9,-13 8,-15 5,-16 3,-16 v -25 l -4,-20 -6,-16 -8,-14 -10,-13 -11,-11 -10,-7 -12,-7 -19,-7 -17,-3 z"
     fill="#409c44"
     id="path1" />
  <path
     d="m 552,0 h 18 l 21,3 17,5 18,8 11,7 9,7 12,11 12,15 9,15 7,16 4,13 3,17 15,2 18,6 12,7 9,7 10,9 10,13 9,17 4,11 3,16 v 21 l -3,16 -6,16 -8,14 -9,11 -9,9 -13,9 -14,7 -13,4 -11,2 H 493 l 6,-7 15,-15 7,-8 36,-36 11,-14 7,-12 6,-17 2,-12 v -21 l -3,-15 -5,-14 -6,-11 -9,-12 -10,-10 -15,-10 -16,-7 -12,-3 -7,-1 h -20 l -15,3 -14,5 -13,8 -4,3 -2,-1 4,-17 6,-15 7,-13 10,-14 11,-12 13,-11 16,-10 13,-6 20,-6 10,-2 z"
     fill="#238cd2"
     id="path2" />
  <path
     d="m 478,117 h 20 l 15,4 12,6 11,9 8,9 8,15 3,13 v 19 l -3,13 -7,14 -11,12 -8,9 -8,7 -10,11 h -2 l -2,4 -4,2 -2,4 -17,16 -10,7 -9,4 -14,3 h -15 l -14,-3 -12,-6 -10,-9 -3,-4 1,-4 15,-15 4,1 11,8 9,3 h 12 l 11,-4 10,-8 6,-7 5,-4 7,-8 33,-33 6,-12 1,-4 v -12 l -3,-10 -7,-10 -12,-8 -7,-2 h -16 l -10,4 -9,7 -43,43 -20,4 -14,5 -4,1 2,-9 7,-14 11,-12 41,-41 10,-8 15,-7 z"
     fill="#272828"
     id="path3" />
  <path
     d="m 415,211 h 16 l 12,3 9,5 5,4 7,10 3,9 -1,4 -8,7 -10,5 -10,1 -1,-10 -4,-6 -4,-2 h -12 l -8,4 -12,11 -46,46 -6,10 -2,9 v 7 l 3,10 5,8 8,7 13,4 h 7 l 13,-4 10,-9 33,-33 24,-4 12,-4 4,-2 -1,6 -7,14 -11,12 -40,40 -11,7 -8,4 -13,3 h -15 l -14,-3 -14,-7 -12,-10 -8,-11 -5,-11 -3,-12 v -17 l 3,-13 8,-16 11,-12 20,-20 4,-5 6,-5 22,-22 14,-8 9,-3 z"
     fill="#272828"
     id="path4" />
  <path
     d="M 298,366"
     fill="#409c44"
     id="path5" />
</svg>
